<svg width="35" height="34" viewBox="0 0 35 34" fill="none" xmlns="http://www.w3.org/2000/svg">
<path d="M15.2286 0.0517306C10.9121 0.517297 7.27406 2.33966 4.48066 5.41905C1.92004 8.2457 0.463482 11.4049 0.0644247 14.9765C-0.0353396 15.881 -0.0153867 17.9893 0.0976794 18.9338C0.58985 22.9177 2.45877 26.6489 5.34528 29.4223C7.84604 31.83 10.8656 33.2932 14.5302 33.8785C15.5811 34.0447 18.4743 34.0447 19.5517 33.8785C23.1299 33.3131 26.216 31.8167 28.7034 29.4223C31.5899 26.6489 33.4589 22.9177 33.951 18.9338C34.084 17.8563 34.084 15.8211 33.951 14.7437C33.4855 10.9859 31.856 7.71363 29.0293 4.86702C27.6526 3.47697 26.3756 2.55249 24.7062 1.74107C23.0302 0.923005 21.5137 0.444137 19.7379 0.171448C18.7203 0.0118249 16.173 -0.0546847 15.2286 0.0517306ZM18.2215 2.71211C24.3204 3.26414 29.3818 7.56065 30.8916 13.4534C31.4503 15.6216 31.4702 17.7167 30.9514 20.0977C30.1267 23.8954 27.9186 27.1145 24.8126 29.0432C20.6026 31.6504 15.1355 31.9497 10.6727 29.8147C9.10307 29.0632 8.05222 28.3249 6.875 27.1544C4.63363 24.9196 3.25023 21.9666 2.82457 18.5347C2.31245 14.3712 3.70915 10.2343 6.68877 7.10174C9.64845 3.98909 14.0115 2.32636 18.2215 2.71211Z" fill="#6E00FF"/>
<path d="M16.6258 6.37698C16.2999 6.47009 15.9806 6.72948 15.8277 7.02877C15.7013 7.28151 15.6946 7.42783 15.6946 11.3585V15.4223L15.4885 15.6617C15.116 16.0874 15.0096 16.4133 15.0429 17.0651C15.0761 17.7102 15.2091 18.0494 15.5949 18.4352C15.9208 18.7544 16.3065 18.9406 16.7521 18.9805L17.1246 19.0138L19.3859 21.2618C21.8601 23.7227 21.7537 23.6428 22.4853 23.5763C22.8378 23.5431 23.1703 23.3303 23.4364 22.9711C23.6425 22.6984 23.6691 21.9668 23.4896 21.621C23.4097 21.4746 22.3988 20.4105 21.1883 19.2C19.1465 17.1648 19.0201 17.0252 19.0201 16.799C19.0201 16.4465 18.8405 15.9876 18.5812 15.6883L18.355 15.4223V11.3585C18.355 7.42783 18.3484 7.28151 18.222 7.02877C18.0624 6.71617 17.7498 6.47009 17.3906 6.37033C17.078 6.28386 16.9384 6.28386 16.6258 6.37698Z" fill="#6E00FF"/>
</svg>
