<svg width="26" height="28" viewBox="0 0 26 28" fill="none" xmlns="http://www.w3.org/2000/svg">
<path d="M12.3682 0.0850274C11.9429 0.242314 11.6225 0.446205 10.9992 0.964668C10.6963 1.21516 10.3642 1.47148 10.2593 1.52391C10.0147 1.64624 9.6768 1.64042 8.82629 1.49478C6.98545 1.17438 6.33883 1.57051 5.6922 3.40553C5.33103 4.4308 5.23782 4.52401 4.19507 4.90849C3.2863 5.24054 3.06493 5.35705 2.72706 5.67162C2.16199 6.20174 2.06296 6.73768 2.28432 8.12996C2.48821 9.3999 2.53482 9.26009 1.50954 10.5126C0.991075 11.1417 0.839614 11.4854 0.816312 12.0913C0.793011 12.5573 0.804661 12.5981 1.00273 12.9942C1.11341 13.2272 1.43381 13.6874 1.71343 14.0253C1.99305 14.3632 2.27267 14.7477 2.33093 14.8875C2.45326 15.1554 2.45326 15.1671 2.2552 16.3438C2.12121 17.1477 2.12121 17.34 2.23189 17.7769C2.42413 18.5167 2.84356 18.8662 4.12516 19.3497C5.01063 19.6876 5.23199 19.8041 5.23199 19.9381C5.23199 19.9905 4.71936 21.645 4.09603 23.6256C3.47271 25.6004 2.96007 27.3073 2.96007 27.4122C2.96007 27.5578 3.0125 27.6626 3.15814 27.8083L3.3562 28.0063H6.39126H9.42631L9.60107 27.8491C9.75836 27.7034 9.85739 27.4413 10.4341 25.6063C10.8011 24.4587 11.1099 23.5091 11.1273 23.4916C11.1448 23.4742 11.3312 23.5848 11.5409 23.7421C12.0478 24.1266 12.3798 24.2489 12.9216 24.2489C13.4633 24.2489 13.7954 24.1266 14.3022 23.7421C14.5119 23.5848 14.6983 23.4742 14.7158 23.4916C14.7333 23.5091 15.042 24.4587 15.409 25.6063C15.9858 27.4413 16.0848 27.7034 16.2421 27.8432L16.4168 28.0063H19.4519H22.4869L22.685 27.8083C22.8306 27.6626 22.8831 27.5578 22.8831 27.4122C22.8831 27.3073 22.3704 25.6004 21.7471 23.6198C21.1238 21.6391 20.6111 19.9789 20.6111 19.9381C20.6111 19.8041 20.8442 19.6876 21.718 19.3497C22.9005 18.9012 23.2559 18.6449 23.5239 18.0332C23.7045 17.6138 23.7219 17.1652 23.5879 16.3263C23.518 15.9069 23.4481 15.47 23.4307 15.3535C23.3841 15.0389 23.5472 14.7244 24.1297 14.0253C24.4093 13.6874 24.7297 13.2272 24.8404 12.9942C25.0385 12.6039 25.0501 12.5515 25.0327 12.0913C25.0035 11.4971 24.8404 11.1301 24.3161 10.4951C23.3083 9.26592 23.3549 9.3999 23.5588 8.12996C23.7802 6.73768 23.6812 6.20174 23.1161 5.67162C22.7782 5.35705 22.5568 5.24054 21.6481 4.90849C20.6053 4.52401 20.5121 4.4308 20.1509 3.40553C19.5043 1.57051 18.8577 1.17438 17.0169 1.49478C15.776 1.71032 15.6945 1.68702 14.7857 0.918065C13.8129 0.0966783 13.0672 -0.165466 12.3682 0.0850274ZM13.3585 1.48313C13.4866 1.56469 13.7488 1.7744 13.941 1.93752C15.1061 2.95114 15.5488 3.06183 17.2324 2.78803C18.4266 2.58997 18.4557 2.60744 18.9451 3.92399C19.4694 5.31627 19.7606 5.61337 21.1063 6.1027C21.7413 6.3299 22.0559 6.48136 22.2306 6.64447C22.3996 6.80176 22.3996 7.15128 22.2364 8.10083C21.9918 9.52224 22.1025 9.89506 23.1918 11.2C23.5763 11.6543 23.7569 11.9689 23.7569 12.1786C23.7569 12.3534 23.5297 12.6913 22.9705 13.3554C22.1374 14.3399 22.0093 14.8409 22.2364 16.1749C22.3005 16.571 22.3588 17.0312 22.3588 17.1943C22.3588 17.6604 22.219 17.7711 21.2112 18.1381C19.7548 18.6682 19.4519 18.9653 18.9392 20.3692C18.5781 21.377 18.4033 21.5984 17.9781 21.5984C17.879 21.5984 17.4829 21.5459 17.0926 21.476C16.6382 21.4003 16.2129 21.3653 15.8925 21.377C15.2459 21.4003 14.8614 21.5867 14.0109 22.2858C13.6672 22.5712 13.2827 22.8508 13.1546 22.9091C12.9332 23.0081 12.9099 23.0081 12.6886 22.9091C12.5604 22.8508 12.1759 22.5712 11.8322 22.2858C10.9817 21.5867 10.5972 21.4003 9.9506 21.377C9.6302 21.3653 9.20494 21.4003 8.75056 21.476C8.36025 21.5459 7.96412 21.5984 7.86509 21.5984C7.43983 21.5984 7.26507 21.377 6.90389 20.3692C6.39708 18.9711 6.08251 18.6623 4.63197 18.1381C3.62417 17.7711 3.48436 17.6604 3.48436 17.1943C3.48436 17.0312 3.54262 16.571 3.6067 16.1749C3.83389 14.8409 3.70573 14.3399 2.87269 13.3554C2.31345 12.6913 2.08626 12.3534 2.08626 12.1786C2.08626 11.9689 2.26685 11.6543 2.65133 11.2C3.74068 9.89506 3.85137 9.52224 3.6067 8.10083C3.44358 7.15128 3.44358 6.80176 3.61252 6.64447C3.78729 6.48136 4.10186 6.3299 4.73683 6.1027C6.08251 5.61337 6.3563 5.33957 6.89224 3.93564C7.40488 2.58997 7.41071 2.58997 8.61075 2.78803C10.2943 3.06183 10.737 2.95114 11.9021 1.93752C12.4264 1.48313 12.6886 1.32585 12.9216 1.32585C13.0497 1.32585 13.2187 1.3841 13.3585 1.48313ZM6.71166 22.5829C6.82234 22.6586 7.01458 22.7518 7.13691 22.7984C7.46314 22.9091 8.26122 22.8974 9.00688 22.7576C9.36805 22.6935 9.74088 22.6469 9.82826 22.6586L9.98555 22.6761L9.35058 24.6975L8.70978 26.7248H6.58932C5.42423 26.7248 4.48051 26.7073 4.49216 26.6781C4.50964 26.6548 4.85334 25.5771 5.26112 24.2781C5.6689 22.979 6.01843 21.8955 6.03008 21.8722C6.04756 21.8489 6.15824 21.9654 6.28057 22.1343C6.40291 22.3032 6.59515 22.5071 6.71166 22.5829ZM20.582 24.2781C20.9898 25.5771 21.3335 26.6548 21.351 26.6781C21.3626 26.7073 20.4189 26.7248 19.2538 26.7248H17.1392L16.4984 24.6975L15.8576 22.6761L16.0207 22.6586C16.1081 22.6469 16.4809 22.6935 16.8479 22.7576C17.611 22.8974 18.38 22.9091 18.7062 22.7984C19.0499 22.6761 19.3645 22.4314 19.5742 22.1227C19.6791 21.9654 19.7839 21.8547 19.8014 21.878C19.8247 21.9013 20.1742 22.979 20.582 24.2781Z" fill="#6E00FF"/>
<path d="M11.6978 4.44225C10.9114 4.57041 10.2065 4.7976 9.45499 5.17043C7.24715 6.26561 5.74419 8.24626 5.25485 10.7337C5.11504 11.4386 5.11504 12.8658 5.25485 13.5765C5.884 16.8038 8.40059 19.2738 11.6046 19.8214C12.2687 19.9321 13.5736 19.9321 14.2377 19.8214C17.2494 19.3088 19.7019 17.0543 20.4651 14.095C21.1758 11.3629 20.3427 8.45015 18.2805 6.49281C16.5387 4.83256 14.0804 4.06942 11.6978 4.44225ZM13.6784 5.69472C16.5154 6.06172 18.7815 8.19383 19.3058 10.9784C19.434 11.6774 19.3932 13.0464 19.2243 13.6872C18.5893 16.0465 16.8416 17.8116 14.5115 18.435C13.9988 18.5748 13.8415 18.5922 12.9211 18.5922C12.0007 18.5922 11.8434 18.5748 11.3308 18.435C9.00061 17.8116 7.25298 16.0465 6.618 13.6872C6.44907 13.0464 6.40829 11.6774 6.53645 10.9784C7.1656 7.62877 10.3638 5.26946 13.6784 5.69472Z" fill="#6E00FF"/>
<path d="M12.6592 7.49502C12.4553 7.5824 12.3621 7.73969 11.8494 8.83487C11.5698 9.42906 11.331 9.92423 11.3193 9.9417C11.3019 9.95335 10.7484 10.0524 10.0843 10.1572C8.9076 10.3437 8.86682 10.3495 8.71536 10.5242C8.54059 10.7223 8.49982 11.0136 8.61632 11.2466C8.65128 11.3165 9.05323 11.7534 9.51344 12.2194L10.3465 13.0641L10.061 14.2875C9.88044 15.0448 9.78141 15.5749 9.80471 15.6856C9.82219 15.7788 9.90375 15.9303 9.99113 16.0176C10.1135 16.1458 10.2008 16.1807 10.4047 16.1807C10.6203 16.1807 10.8649 16.0817 11.7912 15.604L12.9213 15.0273L14.0515 15.604C15.3156 16.2507 15.5078 16.2973 15.8282 16.0293C16.1078 15.7963 16.102 15.6448 15.7816 14.2875L15.4962 13.0641L16.3292 12.2194C16.7894 11.7534 17.1914 11.3165 17.2263 11.2466C17.337 11.0252 17.3021 10.7281 17.1448 10.5359C16.9758 10.3378 16.8768 10.3145 15.5719 10.1223C15.1233 10.0582 14.7039 9.99413 14.634 9.97666C14.5408 9.95918 14.3893 9.68538 14.0049 8.85817C13.7252 8.25233 13.434 7.70473 13.3641 7.629C13.2184 7.47754 12.8514 7.41346 12.6592 7.49502ZM13.2534 10.3495C13.4398 10.7514 13.6029 11.0194 13.6961 11.0835C13.8068 11.1534 14.9602 11.3922 15.2515 11.4039C15.2631 11.4039 15.0651 11.6194 14.8088 11.8816C14.0515 12.6564 14.0515 12.6447 14.2903 13.6409C14.3719 13.9787 14.4359 14.27 14.4359 14.2875C14.4359 14.2991 14.1155 14.1593 13.7311 13.9671C13.3408 13.7748 12.9738 13.6176 12.9213 13.6176C12.8689 13.6176 12.5019 13.7748 12.1058 13.9671C11.4533 14.2875 11.3951 14.3108 11.43 14.1884C11.5815 13.6234 11.7096 12.8078 11.6747 12.668C11.6514 12.5748 11.4009 12.2602 11.1038 11.9515C10.8125 11.6486 10.5853 11.4039 10.597 11.4039C10.8941 11.3864 12.0359 11.1534 12.1465 11.0835C12.2397 11.0194 12.4029 10.7514 12.5893 10.3495C12.7524 9.99996 12.9038 9.71451 12.9213 9.71451C12.9388 9.71451 13.0903 9.99996 13.2534 10.3495Z" fill="#6E00FF"/>
</svg>
