<svg width="36" height="32" viewBox="0 0 36 32" fill="none" xmlns="http://www.w3.org/2000/svg">
<path d="M26.6401 0.0554399C25.4212 0.296542 24.276 1.18058 23.6733 2.34591C23.392 2.87499 23.0705 3.97335 23.0705 4.37519C23.0705 4.5761 23.0437 4.60289 22.8562 4.64308C22.1798 4.78372 21.3292 5.50033 21.0211 6.18345C20.6662 6.96034 20.6662 7.7841 21.0345 7.95153C21.1484 7.99841 21.9587 8.0252 23.6799 8.0252H26.1579L26.3187 7.85777C26.4593 7.72383 26.4861 7.63006 26.4861 7.2885C26.4861 6.5451 26.1378 5.78161 25.5552 5.25923C25.2739 5.00473 24.7716 4.72344 24.4568 4.64977C24.276 4.60959 24.2693 4.5962 24.3162 4.28812C24.5372 2.78123 25.5485 1.56233 26.8277 1.26765C27.3233 1.15379 28.147 1.18058 28.6962 1.33462C30.0424 1.70297 31.1541 2.8549 31.4756 4.21445C31.5626 4.5828 31.576 5.54051 31.576 10.8849V17.1335H23.0035C14.6788 17.1335 14.431 17.1268 14.431 17.0063C14.431 16.9393 14.3238 16.6714 14.1966 16.4102C13.7613 15.5529 12.9442 14.9636 12.0535 14.8698C11.7655 14.843 11.665 14.7895 11.3503 14.5015C10.2385 13.4902 8.63116 13.4232 7.49932 14.3474C7.2917 14.5216 6.90326 14.9971 6.82959 15.1712C6.8229 15.1846 6.66216 15.131 6.46794 15.0573C5.42316 14.6555 4.19756 14.8497 3.41398 15.5329C3.07912 15.8275 2.68398 16.4437 2.59021 16.8187C2.51654 17.1134 2.50985 17.1134 2.18168 17.1536C1.77984 17.2005 1.54544 17.3143 1.24406 17.6157C0.909198 17.9439 0.768555 18.2921 0.768555 18.8279C0.768555 19.5579 1.04314 20.0468 1.6325 20.3683C1.90709 20.5223 2.09462 20.5625 2.56343 20.596L3.14609 20.6362L3.87609 23.5227C4.27123 25.11 4.67307 26.6436 4.76013 26.9249C5.27582 28.5524 6.85638 29.7244 8.5307 29.7244H8.99951L8.60437 30.5348C8.38336 30.9835 8.20253 31.4255 8.20253 31.5126C8.20253 31.7671 8.48382 32.0015 8.79859 32.0015C9.14685 32.0015 9.25401 31.8675 9.84337 30.6754L10.3055 29.7244H18.215H26.1178L26.6535 30.8027C26.9482 31.392 27.2429 31.9077 27.3032 31.9412C27.3635 31.9747 27.5041 32.0015 27.6113 32.0015C27.8657 32.0015 28.1604 31.6733 28.1604 31.392C28.1604 31.2849 27.993 30.8696 27.7988 30.4678L27.4304 29.7378L27.7653 29.6976C29.232 29.5034 30.5982 28.405 31.047 27.0589C31.0938 26.9249 31.4823 25.4247 31.9109 23.7303L32.6945 20.6496L33.2771 20.6027C34.4559 20.5022 35.0586 19.8995 35.0586 18.8279C35.0586 18.2921 34.918 17.9439 34.5831 17.6157C34.2215 17.2608 34.0072 17.1804 33.3709 17.1469L32.7816 17.1201V10.8247C32.7816 3.67867 32.8016 3.97335 32.2458 2.82811C31.576 1.44178 30.3103 0.443882 28.7632 0.0889263C28.2944 -0.0182302 27.109 -0.0316248 26.6401 0.0554399ZM24.5104 5.97584C24.785 6.14327 25.2136 6.61877 25.2136 6.76611C25.2136 6.7929 24.5238 6.81969 23.6733 6.81969C22.4209 6.81969 22.1329 6.7996 22.1329 6.72593C22.1329 6.67905 22.2534 6.49822 22.4008 6.33079C22.9299 5.73473 23.834 5.58739 24.5104 5.97584ZM10.1916 15.0774C10.426 15.198 10.714 15.486 10.8681 15.7405C10.9953 15.9548 11.2364 16.0418 11.7186 16.0552C12.2745 16.0619 12.6964 16.2896 13.0313 16.7518C13.1384 16.8991 13.2255 17.0464 13.2255 17.0799C13.2255 17.1067 11.1025 17.1335 8.50391 17.1335H3.78233L3.90958 16.879C4.17077 16.37 4.69986 16.0686 5.3428 16.0619C5.78482 16.0619 6.17326 16.216 6.58179 16.5709C6.88987 16.8321 7.16446 16.9058 7.39216 16.7852C7.58639 16.6848 7.61987 16.6178 7.8074 16.1088C8.12217 15.2449 8.83208 14.8029 9.68933 14.9301C9.85676 14.9569 10.0845 15.0239 10.1916 15.0774ZM33.6991 18.4864C33.9804 18.7475 33.8799 19.2097 33.5116 19.3369C33.2102 19.4441 2.617 19.4441 2.31563 19.3369C1.95397 19.2097 1.85351 18.781 2.12141 18.4931L2.26205 18.339H17.9069H33.545L33.6991 18.4864ZM31.3751 20.6898C31.3751 20.9309 30.0022 26.5432 29.8682 26.8245C29.5334 27.5679 28.8703 28.1505 28.1068 28.3849C27.6849 28.5189 27.4572 28.5189 17.9538 28.5189C7.36537 28.5189 7.99492 28.539 7.25822 28.1371C6.83629 27.9094 6.3273 27.3602 6.09959 26.8914C5.95895 26.6102 4.45206 20.9175 4.45206 20.6831C4.45206 20.6362 8.75841 20.6161 17.9136 20.6161C27.4907 20.6161 31.3751 20.6362 31.3751 20.6898Z" fill="#6E00FF"/>
<path d="M21.062 9.18398C20.7405 9.34471 20.62 9.90728 20.8276 10.2957C20.9414 10.5167 21.0486 10.5703 21.3968 10.5703C21.7652 10.5703 21.9326 10.3426 21.9326 9.84031C21.9259 9.44517 21.859 9.30453 21.6179 9.17728C21.4303 9.07682 21.2696 9.07682 21.062 9.18398Z" fill="#6E00FF"/>
<path d="M23.4056 9.14367C23.0775 9.26422 22.9234 9.75312 23.0708 10.1951C23.1645 10.4831 23.3052 10.5702 23.6601 10.5702C24.0419 10.5702 24.2093 10.3626 24.2093 9.88707C24.2093 9.41156 24.1691 9.3178 23.9347 9.19725C23.7405 9.09679 23.5797 9.0767 23.4056 9.14367Z" fill="#6E00FF"/>
<path d="M25.6285 9.1637C25.2736 9.31774 25.1865 10.1482 25.5013 10.4362C25.7022 10.6304 26.1509 10.617 26.3384 10.4161C26.5326 10.2085 26.546 9.52536 26.3719 9.30435C26.238 9.13692 25.8562 9.06994 25.6285 9.1637Z" fill="#6E00FF"/>
<path d="M21.0611 11.4609C20.7932 11.5948 20.7195 11.8225 20.7396 12.3918C20.7664 13.0347 20.887 13.2021 21.3357 13.2021C21.5634 13.2021 21.6505 13.162 21.7777 13.0213C21.9117 12.8606 21.9317 12.7668 21.9317 12.2913C21.925 11.6953 21.8715 11.5546 21.5701 11.4408C21.3357 11.3537 21.2687 11.3537 21.0611 11.4609Z" fill="#6E00FF"/>
<path d="M23.3724 11.4409C23.138 11.5346 23.0576 11.6954 23.0241 12.1307C22.9772 12.72 23.0844 13.0348 23.3858 13.1554C23.647 13.2692 23.8412 13.229 24.0622 13.0281C24.1894 12.9076 24.2095 12.8272 24.2095 12.3316C24.2095 11.682 24.156 11.548 23.868 11.4476C23.6202 11.3605 23.5599 11.3605 23.3724 11.4409Z" fill="#6E00FF"/>
<path d="M25.6352 11.4745C25.4075 11.5749 25.2803 11.8696 25.2803 12.3116C25.2803 12.7737 25.4008 13.0483 25.6553 13.1555C25.9232 13.2693 26.1174 13.2292 26.3384 13.0282C26.4657 12.9077 26.4858 12.8273 26.4858 12.3317C26.4858 11.6821 26.4322 11.5481 26.1442 11.4477C25.883 11.3606 25.8964 11.3606 25.6352 11.4745Z" fill="#6E00FF"/>
<path d="M21.0077 14.0327C20.8738 14.0863 20.7264 14.4279 20.7264 14.6757C20.7264 15.3253 21.1417 15.6267 21.6574 15.3588C21.8918 15.2382 21.932 15.1445 21.932 14.6823C21.932 14.2135 21.7377 13.9858 21.3493 13.9925C21.2086 13.9925 21.0546 14.0126 21.0077 14.0327Z" fill="#6E00FF"/>
<path d="M23.2585 14.0528C23.0911 14.1533 22.9839 14.5551 23.0375 14.89C23.0911 15.2918 23.3322 15.4861 23.7072 15.4392C24.089 15.3856 24.2095 15.2048 24.2095 14.6958C24.2095 14.3475 24.1828 14.2538 24.0555 14.1332C23.8881 13.9725 23.4661 13.9323 23.2585 14.0528Z" fill="#6E00FF"/>
<path d="M25.4752 14.16C25.3479 14.3006 25.3145 14.4011 25.3145 14.7293C25.3145 15.245 25.4752 15.4258 25.9239 15.4258C26.3525 15.4258 26.4865 15.2517 26.4865 14.6958C26.4865 14.3475 26.4597 14.2538 26.3324 14.1332C26.1047 13.9189 25.6895 13.9323 25.4752 14.16Z" fill="#6E00FF"/>
</svg>
